<?xml version="1.0" encoding="iso-8859-1"?>
<!-- Generator: Adobe Illustrator 18.0.0, SVG Export Plug-In . SVG Version: 6.00 Build 0)  -->
<!DOCTYPE svg PUBLIC "-//W3C//DTD SVG 1.1//EN" "http://www.w3.org/Graphics/SVG/1.1/DTD/svg11.dtd">
<svg version="1.1" id="Capa_1" xmlns="http://www.w3.org/2000/svg" x="0px" y="0px"
	 viewBox="0 0 372 372" style="fill:#f5f5f5; enable-background:new 0 0 372 372;" xml:space="preserve">
<g>
	<path d="M275.993,293h-14.999c-5.522,0-10,4.477-10,10s4.478,10,10,10h14.999c5.522,0,10-4.477,10-10S281.516,293,275.993,293z"/>
	<path d="M183.788,324h-19.849c-5.522,0-10,4.477-10,10s4.478,10,10,10h19.849c5.522,0,10-4.477,10-10S189.311,324,183.788,324z"/>
	<path d="M113.431,293H93.582c-5.522,0-10,4.477-10,10s4.478,10,10,10h19.849c5.522,0,10-4.477,10-10S118.953,293,113.431,293z"/>
	<path d="M203.637,288h-19.849c-5.522,0-10,4.477-10,10s4.478,10,10,10h19.849c5.522,0,10-4.477,10-10S209.159,288,203.637,288z"/>
	<path d="M186,0C83.439,0,0,83.439,0,186s83.439,186,186,186s186-83.439,186-186S288.561,0,186,0z M186,20
		c91.533,0,166,74.467,166,166c0,26.099-6.062,50.805-16.839,72.798h-31.168v-38.26c0-5.523-4.478-10-10-10h-15.499v-32.082
		c0-5.523-4.478-10-10-10h-19.998v-32.083c0-5.523-4.478-10-10-10h-13.999V99.109c0-5.523-4.478-10-10-10H153.08
		c-5.522,0-10,4.477-10,10v27.264h-9.575c-5.522,0-10,4.477-10,10v32.083h-19.998c-5.522,0-10,4.477-10,10v32.082H78.008
		c-5.522,0-10,4.477-10,10v38.26H37.108v0.541C26.164,237.21,20,212.313,20,186C20,94.467,94.467,20,186,20z M214.496,146.374
		h13.999v22.083h-84.99v-22.083h9.575H214.496z M163.08,126.374v-17.264h41.416v17.264H163.08z M238.495,188.456h19.998v22.082
		H113.507v-22.082h19.998H238.495z M268.493,230.538h15.499v28.26H88.008v-28.26h15.499H268.493z M186,352
		c-57.186,0-107.71-29.067-137.576-73.202h275.152C293.71,322.933,243.186,352,186,352z"/>
</g>
<g>
</g>
<g>
</g>
<g>
</g>
<g>
</g>
<g>
</g>
<g>
</g>
<g>
</g>
<g>
</g>
<g>
</g>
<g>
</g>
<g>
</g>
<g>
</g>
<g>
</g>
<g>
</g>
<g>
</g>
</svg>
